<mxfile host="app.diagrams.net" agent="Mozilla/5.0 (Windows NT 10.0; Win64; x64) AppleWebKit/537.36 (KHTML, like Gecko) Chrome/128.0.0.0 Safari/537.36 OPR/114.0.0.0" version="24.8.4">
  <diagram name="Page-1" id="iWy4ZyQwQhouPtOppjKk">
    <mxGraphModel dx="1508" dy="391" grid="1" gridSize="10" guides="1" tooltips="1" connect="1" arrows="1" fold="1" page="1" pageScale="1" pageWidth="1100" pageHeight="850" math="0" shadow="0">
      <root>
        <mxCell id="0" />
        <mxCell id="1" parent="0" />
        <mxCell id="45yQKrNz5KwJR_Yoa7GH-1" value="product_category" style="whiteSpace=wrap;html=1;align=center;" parent="1" vertex="1">
          <mxGeometry x="80" y="90" width="120" height="50" as="geometry" />
        </mxCell>
        <mxCell id="45yQKrNz5KwJR_Yoa7GH-2" value="product_inventory" style="whiteSpace=wrap;html=1;align=center;" parent="1" vertex="1">
          <mxGeometry x="80" y="460" width="120" height="50" as="geometry" />
        </mxCell>
        <mxCell id="45yQKrNz5KwJR_Yoa7GH-3" value="discount" style="whiteSpace=wrap;html=1;align=center;" parent="1" vertex="1">
          <mxGeometry x="80" y="790" width="120" height="50" as="geometry" />
        </mxCell>
        <mxCell id="45yQKrNz5KwJR_Yoa7GH-4" value="product" style="whiteSpace=wrap;html=1;align=center;" parent="1" vertex="1">
          <mxGeometry x="460" y="420" width="160" height="70" as="geometry" />
        </mxCell>
        <mxCell id="45yQKrNz5KwJR_Yoa7GH-5" value="order_details" style="whiteSpace=wrap;html=1;align=center;" parent="1" vertex="1">
          <mxGeometry x="510" y="740" width="120" height="50" as="geometry" />
        </mxCell>
        <mxCell id="45yQKrNz5KwJR_Yoa7GH-6" value="order_items" style="whiteSpace=wrap;html=1;align=center;" parent="1" vertex="1">
          <mxGeometry x="470" y="970" width="120" height="50" as="geometry" />
        </mxCell>
        <mxCell id="45yQKrNz5KwJR_Yoa7GH-7" value="user" style="whiteSpace=wrap;html=1;align=center;" parent="1" vertex="1">
          <mxGeometry x="620" y="1210" width="120" height="50" as="geometry" />
        </mxCell>
        <mxCell id="45yQKrNz5KwJR_Yoa7GH-8" value="shopping_session" style="whiteSpace=wrap;html=1;align=center;" parent="1" vertex="1">
          <mxGeometry x="110" y="1100" width="120" height="50" as="geometry" />
        </mxCell>
        <mxCell id="45yQKrNz5KwJR_Yoa7GH-9" value="cart_item" style="whiteSpace=wrap;html=1;align=center;" parent="1" vertex="1">
          <mxGeometry x="820" y="130" width="120" height="50" as="geometry" />
        </mxCell>
        <mxCell id="45yQKrNz5KwJR_Yoa7GH-10" value="payment_details" style="whiteSpace=wrap;html=1;align=center;" parent="1" vertex="1">
          <mxGeometry x="1160" y="560" width="120" height="50" as="geometry" />
        </mxCell>
        <mxCell id="45yQKrNz5KwJR_Yoa7GH-11" value="user_address" style="whiteSpace=wrap;html=1;align=center;" parent="1" vertex="1">
          <mxGeometry x="1045" y="780" width="120" height="50" as="geometry" />
        </mxCell>
        <mxCell id="45yQKrNz5KwJR_Yoa7GH-12" value="user_payment" style="whiteSpace=wrap;html=1;align=center;" parent="1" vertex="1">
          <mxGeometry x="820" y="1060" width="120" height="50" as="geometry" />
        </mxCell>
        <mxCell id="45yQKrNz5KwJR_Yoa7GH-14" value="id" style="ellipse;whiteSpace=wrap;html=1;align=center;" parent="1" vertex="1">
          <mxGeometry x="120" y="40" width="50" height="30" as="geometry" />
        </mxCell>
        <mxCell id="45yQKrNz5KwJR_Yoa7GH-15" value="id" style="ellipse;whiteSpace=wrap;html=1;align=center;" parent="1" vertex="1">
          <mxGeometry x="180" y="420" width="50" height="30" as="geometry" />
        </mxCell>
        <mxCell id="45yQKrNz5KwJR_Yoa7GH-18" value="id" style="ellipse;whiteSpace=wrap;html=1;align=center;" parent="1" vertex="1">
          <mxGeometry x="970" y="130" width="50" height="30" as="geometry" />
        </mxCell>
        <mxCell id="45yQKrNz5KwJR_Yoa7GH-19" value="id" style="ellipse;whiteSpace=wrap;html=1;align=center;" parent="1" vertex="1">
          <mxGeometry x="80" y="740" width="50" height="30" as="geometry" />
        </mxCell>
        <mxCell id="45yQKrNz5KwJR_Yoa7GH-20" value="id" style="ellipse;whiteSpace=wrap;html=1;align=center;" parent="1" vertex="1">
          <mxGeometry x="495" y="700" width="50" height="30" as="geometry" />
        </mxCell>
        <mxCell id="45yQKrNz5KwJR_Yoa7GH-21" value="id" style="ellipse;whiteSpace=wrap;html=1;align=center;" parent="1" vertex="1">
          <mxGeometry x="370" y="410" width="50" height="30" as="geometry" />
        </mxCell>
        <mxCell id="45yQKrNz5KwJR_Yoa7GH-23" value="id" style="ellipse;whiteSpace=wrap;html=1;align=center;" parent="1" vertex="1">
          <mxGeometry x="470" y="910" width="50" height="30" as="geometry" />
        </mxCell>
        <mxCell id="45yQKrNz5KwJR_Yoa7GH-24" value="id" style="ellipse;whiteSpace=wrap;html=1;align=center;" parent="1" vertex="1">
          <mxGeometry x="890" y="1020" width="50" height="30" as="geometry" />
        </mxCell>
        <mxCell id="45yQKrNz5KwJR_Yoa7GH-25" value="id" style="ellipse;whiteSpace=wrap;html=1;align=center;" parent="1" vertex="1">
          <mxGeometry x="1125" y="740" width="50" height="30" as="geometry" />
        </mxCell>
        <mxCell id="45yQKrNz5KwJR_Yoa7GH-26" value="id" style="ellipse;whiteSpace=wrap;html=1;align=center;" parent="1" vertex="1">
          <mxGeometry x="1300" y="610" width="50" height="30" as="geometry" />
        </mxCell>
        <mxCell id="45yQKrNz5KwJR_Yoa7GH-27" value="id" style="ellipse;whiteSpace=wrap;html=1;align=center;" parent="1" vertex="1">
          <mxGeometry x="610" y="1160" width="50" height="30" as="geometry" />
        </mxCell>
        <mxCell id="45yQKrNz5KwJR_Yoa7GH-28" value="id" style="ellipse;whiteSpace=wrap;html=1;align=center;" parent="1" vertex="1">
          <mxGeometry x="100" y="1060" width="50" height="30" as="geometry" />
        </mxCell>
        <mxCell id="45yQKrNz5KwJR_Yoa7GH-29" value="created_at" style="ellipse;whiteSpace=wrap;html=1;align=center;" parent="1" vertex="1">
          <mxGeometry x="-30" y="80" width="100" height="30" as="geometry" />
        </mxCell>
        <mxCell id="45yQKrNz5KwJR_Yoa7GH-30" value="modified_at" style="ellipse;whiteSpace=wrap;html=1;align=center;" parent="1" vertex="1">
          <mxGeometry x="230" y="110" width="100" height="30" as="geometry" />
        </mxCell>
        <mxCell id="45yQKrNz5KwJR_Yoa7GH-31" value="modified_at" style="ellipse;whiteSpace=wrap;html=1;align=center;" parent="1" vertex="1">
          <mxGeometry x="-45" y="460" width="100" height="30" as="geometry" />
        </mxCell>
        <mxCell id="45yQKrNz5KwJR_Yoa7GH-32" value="created_at" style="ellipse;whiteSpace=wrap;html=1;align=center;" parent="1" vertex="1">
          <mxGeometry x="-30" y="420" width="100" height="30" as="geometry" />
        </mxCell>
        <mxCell id="45yQKrNz5KwJR_Yoa7GH-33" value="created_at" style="ellipse;whiteSpace=wrap;html=1;align=center;" parent="1" vertex="1">
          <mxGeometry x="520" y="820" width="100" height="30" as="geometry" />
        </mxCell>
        <mxCell id="45yQKrNz5KwJR_Yoa7GH-34" value="modified_at" style="ellipse;whiteSpace=wrap;html=1;align=center;" parent="1" vertex="1">
          <mxGeometry x="610" y="800" width="95" height="30" as="geometry" />
        </mxCell>
        <mxCell id="45yQKrNz5KwJR_Yoa7GH-35" value="created_at" style="ellipse;whiteSpace=wrap;html=1;align=center;" parent="1" vertex="1">
          <mxGeometry x="55" y="880" width="100" height="30" as="geometry" />
        </mxCell>
        <mxCell id="45yQKrNz5KwJR_Yoa7GH-36" value="modified_at" style="ellipse;whiteSpace=wrap;html=1;align=center;" parent="1" vertex="1">
          <mxGeometry x="155" y="890" width="100" height="30" as="geometry" />
        </mxCell>
        <mxCell id="45yQKrNz5KwJR_Yoa7GH-37" value="created_at" style="ellipse;whiteSpace=wrap;html=1;align=center;" parent="1" vertex="1">
          <mxGeometry x="450" y="1030" width="100" height="30" as="geometry" />
        </mxCell>
        <mxCell id="45yQKrNz5KwJR_Yoa7GH-38" value="modified_at" style="ellipse;whiteSpace=wrap;html=1;align=center;" parent="1" vertex="1">
          <mxGeometry x="550" y="1030" width="100" height="30" as="geometry" />
        </mxCell>
        <mxCell id="45yQKrNz5KwJR_Yoa7GH-39" value="created_at" style="ellipse;whiteSpace=wrap;html=1;align=center;" parent="1" vertex="1">
          <mxGeometry x="770" y="1120" width="100" height="30" as="geometry" />
        </mxCell>
        <mxCell id="45yQKrNz5KwJR_Yoa7GH-40" value="modified_at" style="ellipse;whiteSpace=wrap;html=1;align=center;" parent="1" vertex="1">
          <mxGeometry x="870" y="1120" width="100" height="30" as="geometry" />
        </mxCell>
        <mxCell id="45yQKrNz5KwJR_Yoa7GH-43" value="created_at" style="ellipse;whiteSpace=wrap;html=1;align=center;" parent="1" vertex="1">
          <mxGeometry x="1300" y="560" width="100" height="30" as="geometry" />
        </mxCell>
        <mxCell id="45yQKrNz5KwJR_Yoa7GH-44" value="modified_at" style="ellipse;whiteSpace=wrap;html=1;align=center;" parent="1" vertex="1">
          <mxGeometry x="1240" y="510" width="100" height="30" as="geometry" />
        </mxCell>
        <mxCell id="45yQKrNz5KwJR_Yoa7GH-45" value="created_at" style="ellipse;whiteSpace=wrap;html=1;align=center;" parent="1" vertex="1">
          <mxGeometry x="607.5" y="1300" width="100" height="30" as="geometry" />
        </mxCell>
        <mxCell id="45yQKrNz5KwJR_Yoa7GH-46" value="modified_at" style="ellipse;whiteSpace=wrap;html=1;align=center;" parent="1" vertex="1">
          <mxGeometry x="705" y="1280" width="100" height="30" as="geometry" />
        </mxCell>
        <mxCell id="45yQKrNz5KwJR_Yoa7GH-47" value="created_at" style="ellipse;whiteSpace=wrap;html=1;align=center;" parent="1" vertex="1">
          <mxGeometry x="80" y="1160" width="100" height="30" as="geometry" />
        </mxCell>
        <mxCell id="45yQKrNz5KwJR_Yoa7GH-48" value="modified_at" style="ellipse;whiteSpace=wrap;html=1;align=center;" parent="1" vertex="1">
          <mxGeometry x="180" y="1160" width="100" height="30" as="geometry" />
        </mxCell>
        <mxCell id="45yQKrNz5KwJR_Yoa7GH-49" value="created_at" style="ellipse;whiteSpace=wrap;html=1;align=center;" parent="1" vertex="1">
          <mxGeometry x="790" y="90" width="100" height="30" as="geometry" />
        </mxCell>
        <mxCell id="45yQKrNz5KwJR_Yoa7GH-50" value="modified_at" style="ellipse;whiteSpace=wrap;html=1;align=center;" parent="1" vertex="1">
          <mxGeometry x="890" y="90" width="100" height="30" as="geometry" />
        </mxCell>
        <mxCell id="45yQKrNz5KwJR_Yoa7GH-51" value="created_at" style="ellipse;whiteSpace=wrap;html=1;align=center;" parent="1" vertex="1">
          <mxGeometry x="680" y="390" width="100" height="30" as="geometry" />
        </mxCell>
        <mxCell id="45yQKrNz5KwJR_Yoa7GH-52" value="modified_at" style="ellipse;whiteSpace=wrap;html=1;align=center;" parent="1" vertex="1">
          <mxGeometry x="620" y="350" width="100" height="30" as="geometry" />
        </mxCell>
        <mxCell id="45yQKrNz5KwJR_Yoa7GH-53" value="deleted_at" style="ellipse;whiteSpace=wrap;html=1;align=center;" parent="1" vertex="1">
          <mxGeometry x="210" y="70" width="100" height="30" as="geometry" />
        </mxCell>
        <mxCell id="45yQKrNz5KwJR_Yoa7GH-54" value="deleted_at" style="ellipse;whiteSpace=wrap;html=1;align=center;" parent="1" vertex="1">
          <mxGeometry x="220" y="470" width="100" height="30" as="geometry" />
        </mxCell>
        <mxCell id="45yQKrNz5KwJR_Yoa7GH-55" value="deleted_at" style="ellipse;whiteSpace=wrap;html=1;align=center;" parent="1" vertex="1">
          <mxGeometry x="240" y="800" width="100" height="30" as="geometry" />
        </mxCell>
        <mxCell id="45yQKrNz5KwJR_Yoa7GH-56" value="deleted_at" style="ellipse;whiteSpace=wrap;html=1;align=center;" parent="1" vertex="1">
          <mxGeometry x="670" y="430" width="100" height="30" as="geometry" />
        </mxCell>
        <mxCell id="45yQKrNz5KwJR_Yoa7GH-58" value="name" style="ellipse;whiteSpace=wrap;html=1;align=center;" parent="1" vertex="1">
          <mxGeometry x="560" y="340" width="50" height="30" as="geometry" />
        </mxCell>
        <mxCell id="45yQKrNz5KwJR_Yoa7GH-59" value="name" style="ellipse;whiteSpace=wrap;html=1;align=center;" parent="1" vertex="1">
          <mxGeometry x="180" y="40" width="50" height="30" as="geometry" />
        </mxCell>
        <mxCell id="45yQKrNz5KwJR_Yoa7GH-60" value="desc" style="ellipse;whiteSpace=wrap;html=1;align=center;" parent="1" vertex="1">
          <mxGeometry x="60" y="40" width="50" height="30" as="geometry" />
        </mxCell>
        <mxCell id="45yQKrNz5KwJR_Yoa7GH-61" value="quantity" style="ellipse;whiteSpace=wrap;html=1;align=center;" parent="1" vertex="1">
          <mxGeometry x="70" y="410" width="100" height="30" as="geometry" />
        </mxCell>
        <mxCell id="45yQKrNz5KwJR_Yoa7GH-62" value="name" style="ellipse;whiteSpace=wrap;html=1;align=center;" parent="1" vertex="1">
          <mxGeometry x="130" y="730" width="50" height="30" as="geometry" />
        </mxCell>
        <mxCell id="45yQKrNz5KwJR_Yoa7GH-64" value="desc" style="ellipse;whiteSpace=wrap;html=1;align=center;" parent="1" vertex="1">
          <mxGeometry x="190" y="740" width="50" height="30" as="geometry" />
        </mxCell>
        <mxCell id="45yQKrNz5KwJR_Yoa7GH-65" value="discount_percent" style="ellipse;whiteSpace=wrap;html=1;align=center;" parent="1" vertex="1">
          <mxGeometry x="210" y="850" width="100" height="30" as="geometry" />
        </mxCell>
        <mxCell id="45yQKrNz5KwJR_Yoa7GH-66" value="active" style="ellipse;whiteSpace=wrap;html=1;align=center;" parent="1" vertex="1">
          <mxGeometry x="-30" y="780" width="100" height="30" as="geometry" />
        </mxCell>
        <mxCell id="45yQKrNz5KwJR_Yoa7GH-68" value="desc" style="ellipse;whiteSpace=wrap;html=1;align=center;" parent="1" vertex="1">
          <mxGeometry x="385" y="380" width="50" height="30" as="geometry" />
        </mxCell>
        <mxCell id="45yQKrNz5KwJR_Yoa7GH-69" value="SKU" style="ellipse;whiteSpace=wrap;html=1;align=center;" parent="1" vertex="1">
          <mxGeometry x="435" y="360" width="50" height="30" as="geometry" />
        </mxCell>
        <mxCell id="45yQKrNz5KwJR_Yoa7GH-72" value="category_id" style="ellipse;whiteSpace=wrap;html=1;align=center;" parent="1" vertex="1">
          <mxGeometry x="560" y="520" width="100" height="30" as="geometry" />
        </mxCell>
        <mxCell id="45yQKrNz5KwJR_Yoa7GH-73" value="inventory_id" style="ellipse;whiteSpace=wrap;html=1;align=center;" parent="1" vertex="1">
          <mxGeometry x="640" y="500" width="100" height="30" as="geometry" />
        </mxCell>
        <mxCell id="45yQKrNz5KwJR_Yoa7GH-75" value="price" style="ellipse;whiteSpace=wrap;html=1;align=center;" parent="1" vertex="1">
          <mxGeometry x="495" y="350" width="50" height="30" as="geometry" />
        </mxCell>
        <mxCell id="pSlSebkYDRzY324gOrCj-1" value="discount_id" style="ellipse;whiteSpace=wrap;html=1;align=center;" vertex="1" parent="1">
          <mxGeometry x="460" y="530" width="100" height="30" as="geometry" />
        </mxCell>
        <mxCell id="pSlSebkYDRzY324gOrCj-2" value="quantity" style="ellipse;whiteSpace=wrap;html=1;align=center;" vertex="1" parent="1">
          <mxGeometry x="660" y="760" width="80" height="30" as="geometry" />
        </mxCell>
        <mxCell id="pSlSebkYDRzY324gOrCj-3" value="created_at" style="ellipse;whiteSpace=wrap;html=1;align=center;" vertex="1" parent="1">
          <mxGeometry x="645" y="720" width="100" height="30" as="geometry" />
        </mxCell>
        <mxCell id="pSlSebkYDRzY324gOrCj-4" value="product_id" style="ellipse;whiteSpace=wrap;html=1;align=center;" vertex="1" parent="1">
          <mxGeometry x="555" y="690" width="100" height="30" as="geometry" />
        </mxCell>
        <mxCell id="pSlSebkYDRzY324gOrCj-5" value="user_id" style="ellipse;whiteSpace=wrap;html=1;align=center;" vertex="1" parent="1">
          <mxGeometry x="400" y="730" width="100" height="30" as="geometry" />
        </mxCell>
        <mxCell id="pSlSebkYDRzY324gOrCj-6" value="order_id" style="ellipse;whiteSpace=wrap;html=1;align=center;" vertex="1" parent="1">
          <mxGeometry x="540" y="920" width="100" height="30" as="geometry" />
        </mxCell>
        <mxCell id="pSlSebkYDRzY324gOrCj-7" value="product_id" style="ellipse;whiteSpace=wrap;html=1;align=center;" vertex="1" parent="1">
          <mxGeometry x="620" y="940" width="100" height="30" as="geometry" />
        </mxCell>
        <mxCell id="pSlSebkYDRzY324gOrCj-8" value="quantity" style="ellipse;whiteSpace=wrap;html=1;align=center;" vertex="1" parent="1">
          <mxGeometry x="620" y="980" width="100" height="30" as="geometry" />
        </mxCell>
        <mxCell id="pSlSebkYDRzY324gOrCj-9" value="username" style="ellipse;whiteSpace=wrap;html=1;align=center;" vertex="1" parent="1">
          <mxGeometry x="670" y="1160" width="100" height="30" as="geometry" />
        </mxCell>
        <mxCell id="pSlSebkYDRzY324gOrCj-10" value="password" style="ellipse;whiteSpace=wrap;html=1;align=center;" vertex="1" parent="1">
          <mxGeometry x="510" y="1190" width="100" height="30" as="geometry" />
        </mxCell>
        <mxCell id="pSlSebkYDRzY324gOrCj-11" value="first_name" style="ellipse;whiteSpace=wrap;html=1;align=center;" vertex="1" parent="1">
          <mxGeometry x="507.5" y="1220" width="100" height="30" as="geometry" />
        </mxCell>
        <mxCell id="pSlSebkYDRzY324gOrCj-12" value="last_name" style="ellipse;whiteSpace=wrap;html=1;align=center;" vertex="1" parent="1">
          <mxGeometry x="760" y="1210" width="100" height="30" as="geometry" />
        </mxCell>
        <mxCell id="pSlSebkYDRzY324gOrCj-14" value="telephone" style="ellipse;whiteSpace=wrap;html=1;align=center;" vertex="1" parent="1">
          <mxGeometry x="770" y="1245" width="100" height="30" as="geometry" />
        </mxCell>
        <mxCell id="pSlSebkYDRzY324gOrCj-16" value="user_id" style="ellipse;whiteSpace=wrap;html=1;align=center;" vertex="1" parent="1">
          <mxGeometry x="150" y="1060" width="100" height="30" as="geometry" />
        </mxCell>
        <mxCell id="pSlSebkYDRzY324gOrCj-17" value="total" style="ellipse;whiteSpace=wrap;html=1;align=center;" vertex="1" parent="1">
          <mxGeometry x="237.5" y="1100" width="70" height="20" as="geometry" />
        </mxCell>
        <mxCell id="pSlSebkYDRzY324gOrCj-18" value="deleted_at" style="ellipse;whiteSpace=wrap;html=1;align=center;" vertex="1" parent="1">
          <mxGeometry y="1095" width="100" height="30" as="geometry" />
        </mxCell>
        <mxCell id="pSlSebkYDRzY324gOrCj-19" value="session_id" style="ellipse;whiteSpace=wrap;html=1;align=center;" vertex="1" parent="1">
          <mxGeometry x="910" y="190" width="100" height="30" as="geometry" />
        </mxCell>
        <mxCell id="pSlSebkYDRzY324gOrCj-20" value="product_id" style="ellipse;whiteSpace=wrap;html=1;align=center;" vertex="1" parent="1">
          <mxGeometry x="810" y="210" width="100" height="30" as="geometry" />
        </mxCell>
        <mxCell id="pSlSebkYDRzY324gOrCj-21" value="order_id" style="ellipse;whiteSpace=wrap;html=1;align=center;" vertex="1" parent="1">
          <mxGeometry x="1140" y="500" width="100" height="30" as="geometry" />
        </mxCell>
        <mxCell id="pSlSebkYDRzY324gOrCj-22" value="amount" style="ellipse;whiteSpace=wrap;html=1;align=center;" vertex="1" parent="1">
          <mxGeometry x="1045" y="520" width="100" height="30" as="geometry" />
        </mxCell>
        <mxCell id="pSlSebkYDRzY324gOrCj-23" value="provider" style="ellipse;whiteSpace=wrap;html=1;align=center;" vertex="1" parent="1">
          <mxGeometry x="1020" y="550" width="100" height="30" as="geometry" />
        </mxCell>
        <mxCell id="pSlSebkYDRzY324gOrCj-24" value="status" style="ellipse;whiteSpace=wrap;html=1;align=center;" vertex="1" parent="1">
          <mxGeometry x="1155" y="620" width="100" height="30" as="geometry" />
        </mxCell>
        <mxCell id="pSlSebkYDRzY324gOrCj-25" value="user_id" style="ellipse;whiteSpace=wrap;html=1;align=center;" vertex="1" parent="1">
          <mxGeometry x="1060" y="730" width="55" height="30" as="geometry" />
        </mxCell>
        <mxCell id="pSlSebkYDRzY324gOrCj-26" value="city" style="ellipse;whiteSpace=wrap;html=1;align=center;" vertex="1" parent="1">
          <mxGeometry x="965" y="820" width="55" height="30" as="geometry" />
        </mxCell>
        <mxCell id="pSlSebkYDRzY324gOrCj-27" value="address_line1" style="ellipse;whiteSpace=wrap;html=1;align=center;" vertex="1" parent="1">
          <mxGeometry x="930" y="750" width="105" height="30" as="geometry" />
        </mxCell>
        <mxCell id="pSlSebkYDRzY324gOrCj-28" value="address_line2" style="ellipse;whiteSpace=wrap;html=1;align=center;" vertex="1" parent="1">
          <mxGeometry x="905" y="780" width="105" height="30" as="geometry" />
        </mxCell>
      </root>
    </mxGraphModel>
  </diagram>
</mxfile>
